<svg width="140" height="147" viewBox="0 0 140 147" fill="none" xmlns="http://www.w3.org/2000/svg">
<path d="M137.979 146.531H70.4962C70.235 146.531 69.9764 146.479 69.7353 146.379C69.4941 146.279 69.275 146.132 69.0907 145.947C68.9063 145.763 68.7602 145.543 68.6609 145.302C68.5615 145.06 68.5107 144.801 68.5116 144.54V144.442V144.449L72.4808 65.3881C72.5103 64.8832 72.7316 64.4086 73.0993 64.0613C73.467 63.714 73.9535 63.5202 74.4593 63.5195H134.01C135.066 63.5195 135.927 64.3439 135.988 65.382V65.3881L139.939 144.052C139.976 144.198 140 144.369 140 144.546V144.552C140 145.077 139.792 145.58 139.421 145.951C139.049 146.322 138.546 146.531 138.021 146.531H138.015H137.979ZM82.4221 80.1047C82.4343 82.9625 84.309 85.3746 86.892 86.1989L86.9348 86.2112C89.0171 96.2929 96.18 103.755 104.692 103.755C113.205 103.755 120.355 96.2868 122.426 86.2417C123.811 85.8324 125.018 84.9699 125.855 83.7925C126.691 82.6152 127.109 81.191 127.039 79.7483C126.97 78.3056 126.418 76.928 125.473 75.8361C124.527 74.7443 123.243 74.0015 121.825 73.7268C120.407 73.4521 118.938 73.6615 117.653 74.3212C116.368 74.981 115.342 76.053 114.739 77.3655C114.136 78.6779 113.991 80.1548 114.327 81.5594C114.664 82.9641 115.462 84.2151 116.594 85.112L116.606 85.1242C115.092 92.4398 110.323 97.8074 104.668 97.8074C99.0134 97.8074 94.2686 92.4703 92.742 85.1853C93.6041 84.5178 94.2822 83.6419 94.7124 82.6401C95.1425 81.6382 95.3106 80.5434 95.2008 79.4586C95.091 78.3739 94.7069 77.3349 94.0847 76.4396C93.4625 75.5443 92.6226 74.822 91.6442 74.3409C90.6658 73.8598 89.5811 73.6356 88.4921 73.6895C87.4031 73.7433 86.3458 74.0735 85.4196 74.6488C84.4935 75.2241 83.729 76.0257 83.1982 76.978C82.6674 77.9304 82.3877 79.0022 82.3854 80.0925V80.1108L82.4221 80.1047ZM1.98154 138.733C1.71192 138.732 1.44521 138.677 1.19769 138.57C0.950173 138.463 0.727032 138.307 0.541887 138.111C0.356743 137.915 0.213477 137.683 0.120834 137.43C0.0281911 137.177 -0.0118867 136.908 0.00304644 136.638V136.645L5.5233 26.7586C5.55287 26.2536 5.77411 25.779 6.14183 25.4317C6.50955 25.0845 6.996 24.8907 7.50179 24.89H20.9605C25.18 10.2344 36.4404 0 49.5326 0C62.6249 0 73.873 10.2406 78.0926 24.8778H90.275C91.3253 24.8778 92.1924 25.7021 92.2474 26.7402V26.7463L93.8412 58.555H74.4654H74.4593C70.7465 58.555 67.7177 61.4677 67.5284 65.1316V65.1499L63.834 138.739L1.98154 138.733ZM66.8506 34.6664C65.2624 35.7017 64.0507 37.222 63.3958 39.0011C62.7408 40.7802 62.6776 42.7232 63.2154 44.5412C63.7533 46.3591 64.8635 47.9549 66.381 49.0913C67.8985 50.2277 69.7422 50.844 71.6381 50.8486C73.6979 50.8576 75.6956 50.1431 77.2825 48.8299C78.8695 47.5166 79.9451 45.6879 80.3216 43.6627C80.6982 41.6376 80.3518 39.5445 79.3429 37.7486C78.334 35.9527 76.7267 34.5679 74.8012 33.836L74.7402 33.8176C73.299 17.5866 62.5455 4.94014 49.5387 4.94014C36.532 4.94014 25.7357 17.6111 24.3129 33.8726C22.4729 34.5924 20.9289 35.9109 19.9298 37.6156C18.9308 39.3202 18.535 41.3117 18.8063 43.2688C19.0775 45.2259 20 47.0346 21.4249 48.4033C22.8499 49.7721 24.6943 50.621 26.6607 50.8132C28.6272 51.0055 30.6011 50.5299 32.2641 49.4631C33.9272 48.3962 35.1825 46.8004 35.8277 44.9329C36.4728 43.0654 36.4702 41.035 35.8203 39.1691C35.1704 37.3033 33.911 35.7107 32.2452 34.6481L32.2086 34.6298C33.2345 22.4046 40.6111 12.8908 49.5387 12.8908C58.4664 12.8908 65.8613 22.4352 66.8689 34.6848L66.8506 34.6664ZM40.0493 24.8656H58.9793C58.1746 22.9657 56.8789 21.314 55.2253 20.08C53.5717 18.8459 51.6196 18.0739 49.5693 17.8431L49.5143 17.837C45.2398 18.3072 41.698 21.0429 40.0798 24.7984L40.0493 24.8717V24.8656ZM118.206 79.9337C118.183 79.614 118.226 79.293 118.332 78.9906C118.439 78.6882 118.606 78.411 118.825 78.1763C119.043 77.9416 119.307 77.7544 119.601 77.6264C119.895 77.4984 120.212 77.4324 120.533 77.4324C120.853 77.4324 121.17 77.4984 121.464 77.6264C121.758 77.7544 122.022 77.9416 122.241 78.1763C122.459 78.411 122.627 78.6882 122.733 78.9906C122.839 79.293 122.882 79.614 122.859 79.9337C122.808 80.5143 122.54 81.0546 122.11 81.4481C121.68 81.8416 121.119 82.0599 120.536 82.0599C119.953 82.0599 119.391 81.8416 118.961 81.4481C118.531 81.0546 118.264 80.5143 118.212 79.9337H118.206ZM86.3058 79.9337C86.3058 79.4723 86.4426 79.0213 86.6989 78.6377C86.9552 78.2541 87.3196 77.9552 87.7458 77.7786C88.172 77.602 88.6411 77.5558 89.0936 77.6459C89.5461 77.7359 89.9617 77.958 90.2879 78.2843C90.6142 78.6105 90.8363 79.0261 90.9263 79.4786C91.0163 79.9311 90.9701 80.4001 90.7936 80.8264C90.617 81.2526 90.318 81.6169 89.9344 81.8733C89.5508 82.1296 89.0998 82.2664 88.6385 82.2664C88.0241 82.2599 87.437 82.0113 87.0048 81.5746C86.5726 81.1378 86.3302 80.5482 86.3302 79.9337H86.3058ZM68.1329 42.4033C68.1329 41.4842 68.4981 40.6028 69.1479 39.9529C69.7978 39.303 70.6793 38.9379 71.5984 38.9379C72.5175 38.9379 73.3989 39.303 74.0488 39.9529C74.6987 40.6028 75.0638 41.4842 75.0638 42.4033C75.0638 43.3224 74.6987 44.2039 74.0488 44.8538C73.3989 45.5037 72.5175 45.8688 71.5984 45.8688C70.6793 45.8688 69.7978 45.5037 69.1479 44.8538C68.4981 44.2039 68.1329 43.3224 68.1329 42.4033ZM23.9954 42.4033C23.9607 41.9262 24.0247 41.4471 24.1835 40.9959C24.3422 40.5446 24.5923 40.131 24.918 39.7807C25.2438 39.4304 25.6382 39.151 26.0768 38.9599C26.5153 38.7689 26.9885 38.6703 27.4669 38.6703C27.9453 38.6703 28.4185 38.7689 28.857 38.9599C29.2956 39.151 29.69 39.4304 30.0158 39.7807C30.3415 40.131 30.5916 40.5446 30.7503 40.9959C30.9091 41.4471 30.9731 41.9262 30.9384 42.4033C30.8654 43.273 30.4683 44.0835 29.8259 44.6742C29.1835 45.2649 28.3427 45.5927 27.47 45.5927C26.5972 45.5927 25.7564 45.2649 25.114 44.6742C24.4716 44.0835 24.0745 43.273 24.0015 42.4033H23.9954Z" fill="#2C3E50"/>
</svg>
