<svg width="75" height="75" viewBox="0 0 75 75" fill="none" xmlns="http://www.w3.org/2000/svg">
<path d="M28.125 71.875C26.4062 71.875 25 70.4688 25 68.75V40.625C25 38.9062 26.4062 37.5 28.125 37.5H46.875C48.5938 37.5 50 38.9062 50 40.625V68.75C50 70.4688 48.5938 71.875 46.875 71.875H28.125ZM31.25 34.375C29.5312 34.375 28.125 32.9688 28.125 31.25V16.4062C28.125 16.4062 34.375 9.375 36.7188 3.125C40.0938 5.21875 43.5 7.28125 45.1875 11.9687C46.875 16.6562 46.875 23.9688 46.875 31.25C46.875 32.9688 45.4688 34.375 43.75 34.375H31.25Z" fill="#ECF0F1"/>
</svg>
