<svg width="75" height="75" viewBox="0 0 75 75" fill="none" xmlns="http://www.w3.org/2000/svg">
<path d="M74.9171 39.9639C74.9379 39.8163 74.9473 39.6673 74.9452 39.5183C74.981 38.85 74.9993 38.1773 75 37.5001C75.008 28.9571 72.0847 20.67 66.7183 14.0229C66.5795 13.7968 66.4103 13.5909 66.2153 13.4111C62.2335 8.66712 57.1435 4.97809 51.3959 2.67055C51.2628 2.60614 51.1249 2.55213 50.9834 2.50901C42.3055 -0.836338 32.6938 -0.836338 24.0159 2.50901C23.8747 2.55221 23.737 2.60622 23.6041 2.67055C17.8567 4.97804 12.7668 8.66694 8.78511 13.4107C8.58979 13.5907 8.42028 13.7969 8.28138 14.0233C2.91525 20.6704 -0.00793492 28.9573 1.61775e-05 37.5001C1.61775e-05 38.178 0.0182856 38.8515 0.054824 39.5208C0.052863 39.6685 0.0622654 39.8162 0.0829487 39.9625C0.483998 46.1621 2.42933 52.1629 5.74184 57.4187C5.84407 57.631 5.97194 57.83 6.12261 58.0112C11.1891 65.7462 18.9257 71.3455 27.8567 73.7409C27.8957 73.7536 27.9357 73.7615 27.975 73.773C34.2194 75.4092 40.7799 75.4092 47.0243 73.773C47.0639 73.7619 47.1043 73.7536 47.1433 73.7406C56.0742 71.3453 63.8108 65.7461 68.8774 58.0112C69.0281 57.83 69.1559 57.631 69.2582 57.4187C72.5704 52.1634 74.5158 46.163 74.9171 39.9639V39.9639ZM16.0601 33.5669L20.8078 35.1095L25.4008 49.2455L22.4665 53.284L9.97681 53.2779C7.79112 49.4821 6.42097 45.2723 5.95386 40.9173L16.0601 33.5669ZM58.9399 33.5669L69.0461 40.9176C68.579 45.2726 67.2088 49.4823 65.0232 53.2779L52.5335 53.2843L49.5992 49.2459L54.1922 35.1095L58.9399 33.5669ZM61.0074 16.2095L57.1572 28.08L52.4095 29.6226L40.3846 20.8858V15.8943L50.497 8.55553C54.489 10.3581 58.0668 12.9637 61.0074 16.2098V16.2095ZM24.503 8.55516L34.6154 15.894V20.8862L22.5905 29.6229L17.8428 28.08L13.9926 16.2095C16.9333 12.9633 20.5113 10.3577 24.5034 8.55516H24.503ZM31.0028 68.5609L27.1334 56.6756L30.0678 52.6368H44.9315L47.8659 56.6752L43.9969 68.5609C39.7114 69.4541 35.2879 69.4541 31.0024 68.5609H31.0028Z" fill="#ECF0F1"/>
</svg>
