<svg width="257" height="178" viewBox="0 0 257 178" fill="none" xmlns="http://www.w3.org/2000/svg">
<path d="M5.75 59H33.1364C45.7784 59 53.5909 52.0966 53.5909 42.5227C53.5909 34.3125 47.5398 28.9432 40.0682 28.6591V28.0909C46.8011 26.7557 51.3182 21.7841 51.3182 15.3636C51.3182 6.5 44.2727 0.81818 30.9773 0.81818H5.75V59ZM21.5455 46.3864V34.1136H29.1591C33.9602 34.1136 36.8864 36.3864 36.8864 40.4773C36.8864 44.3693 34.2443 46.3864 28.9318 46.3864H21.5455ZM21.5455 24.3409V13.2045H28.25C32.1705 13.2045 35.0682 15.1932 35.0682 18.7727C35.0682 22.3523 32.1705 24.3409 28.0227 24.3409H21.5455ZM75.0966 0.81818H59.4148V59H75.0966V0.81818ZM95.2457 59.6818C100.928 59.6818 105.217 57.75 107.859 52.8636H108.2V59H122.859V29.1136C122.859 21.0455 115.217 14.7955 102.746 14.7955C89.706 14.7955 83.2855 21.6136 82.7457 29.5682H97.1776C97.5469 26.8693 99.5355 25.5909 102.518 25.5909C105.246 25.5909 107.178 26.8409 107.178 29.1136V29.2273C107.178 31.7557 104.393 32.5511 97.0639 33.0909C88.0582 33.7443 81.0412 37.3807 81.0412 46.9545C81.0412 55.6477 86.8935 59.6818 95.2457 59.6818ZM100.359 49.7955C97.6889 49.7955 95.8139 48.4886 95.8139 46.0455C95.8139 43.8011 97.4048 42.0682 101.041 41.5C103.541 41.1023 105.643 40.5909 107.291 39.9091V43.5455C107.291 47.5227 103.911 49.7955 100.359 49.7955ZM151.375 59.7955C164.301 59.7955 172.227 52.3807 172.398 40.8182H157.852C157.511 45.392 155.04 47.8636 151.602 47.8636C147.483 47.8636 144.784 44.3409 144.784 37.1818C144.784 30.0227 147.483 26.5 151.602 26.5C155.068 26.5 157.426 28.9716 157.852 33.5455H172.398C172.312 22.1818 164.216 14.7955 151.375 14.7955C137.17 14.7955 128.761 23.8864 128.761 37.2955C128.761 50.7045 137.17 59.7955 151.375 59.7955ZM178.868 59H194.55V46.6136L196.908 43.6307L205.8 59H223.754L208.47 34.483L223.3 15.3636H205.686L195.118 30.0227H194.55V0.81818H178.868V59Z" fill="#ECF0F1"/>
<path d="M5.75 111H21.5455V88.2727H44.1591V75.5455H21.5455V65.5455H46.6591V52.8182H5.75V111ZM51.7585 111H67.4403V88.2727C67.4403 83.2727 70.8778 79.9773 75.5085 79.9773C77.1278 79.9773 79.7415 80.233 81.304 80.7727V67.392C80.054 67.0227 78.6903 66.7955 77.3267 66.7955C72.6676 66.7955 69.0312 69.5227 67.4403 75.6591H66.9858V67.3636H51.7585V111ZM86.446 111H102.128V67.3636H86.446V111ZM94.2869 62.8182C98.5483 62.8182 102.014 59.608 102.014 55.6591C102.014 51.7102 98.5483 48.5 94.2869 48.5C90.0256 48.5 86.5597 51.7102 86.5597 55.6591C86.5597 59.608 90.0256 62.8182 94.2869 62.8182ZM125.913 111.568C132.05 111.568 136.254 108.273 138.072 103.841H138.413V111H153.982V52.8182H138.3V74.9773H138.072C136.368 70.5455 132.277 66.7955 125.8 66.7955C117.163 66.7955 108.754 73.3864 108.754 89.1818C108.754 104.295 116.595 111.568 125.913 111.568ZM131.709 99.5227C127.391 99.5227 124.891 95.6591 124.891 89.1818C124.891 82.7045 127.391 78.8409 131.709 78.8409C136.027 78.8409 138.641 82.7045 138.641 89.1818C138.641 95.5455 136.027 99.5227 131.709 99.5227ZM173.839 111.682C179.521 111.682 183.811 109.75 186.453 104.864H186.794V111H201.453V81.1136C201.453 73.0455 193.811 66.7955 181.339 66.7955C168.3 66.7955 161.879 73.6136 161.339 81.5682H175.771C176.141 78.8693 178.129 77.5909 181.112 77.5909C183.839 77.5909 185.771 78.8409 185.771 81.1136V81.2273C185.771 83.7557 182.987 84.5511 175.658 85.0909C166.652 85.7443 159.635 89.3807 159.635 98.9545C159.635 107.648 165.487 111.682 173.839 111.682ZM178.953 101.795C176.283 101.795 174.408 100.489 174.408 98.0455C174.408 95.8011 175.999 94.0682 179.635 93.5C182.135 93.1023 184.237 92.5909 185.885 91.9091V95.5455C185.885 99.5227 182.504 101.795 178.953 101.795ZM216.929 127.364C227.895 127.364 233.037 121.852 235.452 114.636L251.361 67.3636H234.884L227.724 97.5909H227.27L220.224 67.3636H203.861L219.202 112.932L218.861 113.727C217.81 116.142 214.77 116.057 210.906 114.693L207.497 125.83C209.94 126.795 213.321 127.364 216.929 127.364Z" fill="#E74C3C"/>
<path d="M36.2926 154.273C35.5114 145.253 28.9062 140.139 19.7443 140.139C9.94318 140.139 2.2017 146.673 2.2017 158.818C2.2017 170.91 9.73011 177.497 19.7443 177.497C30.3977 177.497 35.7955 170.111 36.2926 163.932L26.2784 163.861C25.7812 166.968 23.5795 168.903 19.9574 168.903C15.1456 168.903 12.358 165.494 12.358 158.818C12.358 152.497 15.0568 148.733 20.0284 148.733C23.8281 148.733 25.9943 150.97 26.2784 154.273H36.2926ZM49.0945 177L51.1896 170.04H63.1925L65.2876 177H75.9411L63.9382 140.636H50.4439L38.4411 177H49.0945ZM53.4268 162.653L57.049 150.651H57.3331L60.9553 162.653H53.4268ZM97.6296 152H107.076C107.04 144.862 101.536 140.139 92.729 140.139C84.082 140.139 77.9741 144.791 78.0273 151.716C78.0096 157.398 81.9513 160.558 88.3967 161.943L92.0188 162.724C96.0671 163.612 97.4521 164.624 97.4876 166.276C97.4521 168.069 95.8185 169.33 92.658 169.33C88.8761 169.33 86.6388 167.554 86.479 164.216H77.104C77.1396 173.342 83.3185 177.426 92.8001 177.426C102.015 177.426 107.537 173.449 107.573 166.276C107.537 160.736 104.235 156.847 96.2092 155.125L93.2262 154.486C89.7816 153.758 88.2369 152.746 88.3256 151.006C88.3434 149.408 89.6751 148.236 92.729 148.236C95.9251 148.236 97.4343 149.638 97.6296 152ZM111.328 177H121.2V162.795H134.268V177H144.141V140.636H134.268V154.841H121.2V140.636H111.328V177ZM184.055 158.818C184.055 146.673 176.243 140.139 166.371 140.139C156.428 140.139 148.686 146.673 148.686 158.818C148.686 170.892 156.428 177.497 166.371 177.497C176.243 177.497 184.055 170.963 184.055 158.818ZM173.899 158.818C173.899 165.352 171.271 168.903 166.371 168.903C161.47 168.903 158.842 165.352 158.842 158.818C158.842 152.284 161.47 148.733 166.371 148.733C171.271 148.733 173.899 152.284 173.899 158.818ZM210.143 140.636V163.08C210.143 166.471 207.71 168.903 204.319 168.903C200.928 168.903 198.495 166.471 198.495 163.08V140.636H188.623V163.932C188.623 172.241 194.909 177.426 204.319 177.426C213.659 177.426 220.015 172.241 220.015 163.932V140.636H210.143ZM223.713 148.591H234.65V177H244.38V148.591H255.318V140.636H223.713V148.591Z" fill="url(#paint0_linear)"/>
<defs>
<linearGradient id="paint0_linear" x1="128.5" y1="143" x2="128.5" y2="175" gradientUnits="userSpaceOnUse">
<stop stop-color="#3498DB"/>
<stop offset="1" stop-color="#ECF0F1"/>
</linearGradient>
</defs>
</svg>
