<svg width="75" height="82" viewBox="0 0 75 82" fill="none" xmlns="http://www.w3.org/2000/svg">
<path d="M66.6667 72.9167C66.6667 77.5417 62.9583 81.25 58.3333 81.25H16.6667C14.4565 81.25 12.3369 80.372 10.7741 78.8092C9.21131 77.2464 8.33333 75.1268 8.33333 72.9167V43.75H0V35.4167H75V43.75H66.6667V72.9167ZM20.8333 0C17.1314 7.80134e-08 13.581 1.47061 10.9633 4.0883C8.34561 6.706 6.875 10.2564 6.875 13.9583C6.875 17.6603 8.34561 21.2107 10.9633 23.8284C13.581 26.4461 17.1314 27.9167 20.8333 27.9167H27.2083C28.8333 27.9167 30.375 28.3333 31.7083 29.1667H40.125C37.7083 24.7917 32.75 21.875 27.2083 21.875H20.8333C16.6667 21.875 13.125 17.7917 13.125 13.5417C13.125 9.29167 16.6667 6.25 20.8333 6.25V0ZM41.0417 2.08333C41.0417 6.25 37.5 9.79167 33.3333 9.79167V16.0417C41.3333 16.0417 47.9167 21.6667 49.5417 29.1667H55.9167C55.329 25.4851 53.8585 22.0006 51.6309 19.0111C49.4032 16.0216 46.4848 13.616 43.125 12C45.7083 9.45833 47.2917 5.95833 47.2917 2.08333H41.0417Z" fill="#ECF0F1"/>
</svg>
