<svg width="75" height="75" viewBox="0 0 75 75" fill="none" xmlns="http://www.w3.org/2000/svg">
<path d="M21.0795 11.7108C19.6742 11.7108 18.7373 13.1161 18.7373 14.053V25.7638H14.053V14.053C14.053 12.6477 13.1161 11.7108 11.7108 11.7108C10.3055 11.7108 9.36866 13.1161 9.36866 14.053V25.7638H4.68433V14.053C4.68433 12.6477 3.74746 11.7108 2.34217 11.7108C0.936866 11.7108 0 13.1161 0 14.053V29.5113C0 33.7272 3.27903 37.0062 7.0265 37.4746V70.265C7.0265 73.0756 8.90023 74.9493 11.7108 74.9493C14.5214 74.9493 16.3952 73.0756 16.3952 70.265V37.4746C20.1426 37.0062 23.4217 33.7272 23.4217 29.5113V14.053C23.4217 13.1161 22.4848 11.7108 21.0795 11.7108ZM30.4481 14.053V42.159H35.1325V70.265C35.1325 73.0756 37.0062 74.9493 39.8168 74.9493C42.6274 74.9493 44.5011 73.0756 44.5011 70.265V0C36.5378 0 30.4481 6.08963 30.4481 14.053ZM63.2385 9.36866C56.6804 9.36866 51.5276 16.3952 51.5276 24.827C51.0592 30.4481 53.8698 35.6009 58.5541 38.8799V70.265C58.5541 73.0756 60.4279 74.9493 63.2385 74.9493C66.0491 74.9493 67.9228 73.0756 67.9228 70.265V38.8799C72.6071 35.6009 75.4177 30.4481 74.9493 24.827C74.9493 16.3952 69.7965 9.36866 63.2385 9.36866Z" fill="#ECF0F1"/>
</svg>
