<svg width="140" height="140" viewBox="0 0 140 140" fill="none" xmlns="http://www.w3.org/2000/svg">
<path fill-rule="evenodd" clip-rule="evenodd" d="M60.1822 4.07505L49.6364 14.6115C48.7849 15.4634 47.6306 15.9432 46.426 15.946H29.8328C22.1615 15.946 15.946 22.1615 15.946 29.8328V46.426C15.946 47.6393 15.4607 48.7872 14.6115 49.6458L4.06572 60.1822C1.46244 62.7863 0 66.3178 0 70C0 73.6822 1.46244 77.2137 4.06572 79.8178L14.6115 90.3636C15.4634 91.2151 15.9432 92.3695 15.946 93.574V110.167C15.946 117.839 22.1615 124.054 29.8328 124.054H46.426C47.6393 124.054 48.7872 124.539 49.6458 125.389L60.1822 135.934C62.7863 138.538 66.3178 140 70 140C73.6822 140 77.2137 138.538 79.8178 135.934L90.3636 125.389C91.2151 124.537 92.3695 124.057 93.574 124.054H110.167C117.839 124.054 124.054 117.839 124.054 110.167V93.574C124.054 92.3607 124.539 91.2128 125.389 90.3542L135.934 79.8178C138.538 77.2137 140 73.6822 140 70C140 66.3178 138.538 62.7863 135.934 60.1822L125.389 49.6364C124.537 48.7849 124.057 47.6306 124.054 46.426V29.8328C124.054 22.1615 117.839 15.946 110.167 15.946H93.574C92.3662 15.9457 91.2081 15.4656 90.3542 14.6115L79.8178 4.06572C77.2137 1.46244 73.6822 0 70 0C66.3178 0 62.7863 1.46244 60.1822 4.06572V4.07505ZM43.365 90.0276L90.0276 43.365L96.635 49.9724L49.9724 96.635L43.365 90.0276ZM46.6687 46.6687V56.0012H56.0012V46.6687H46.6687ZM83.9988 93.3313H93.3313V83.9988H83.9988V93.3313Z" fill="#2C3E50"/>
</svg>
