<svg width="76" height="119" viewBox="0 0 76 119" fill="none" xmlns="http://www.w3.org/2000/svg">
<path d="M0.3125 15C0.3125 11.0218 1.89285 7.20644 4.7059 4.3934C7.51894 1.58035 11.3343 0 15.3125 0L60.3125 0C64.2907 0 68.1061 1.58035 70.9191 4.3934C73.7321 7.20644 75.3125 11.0218 75.3125 15V105C75.3125 108.978 73.7321 112.794 70.9191 115.607C68.1061 118.42 64.2907 120 60.3125 120H15.3125C11.3343 120 7.51894 118.42 4.7059 115.607C1.89285 112.794 0.3125 108.978 0.3125 105V15ZM45.3125 97.5C45.3125 95.5109 44.5223 93.6032 43.1158 92.1967C41.7093 90.7902 39.8016 90 37.8125 90C35.8234 90 33.9157 90.7902 32.5092 92.1967C31.1027 93.6032 30.3125 95.5109 30.3125 97.5C30.3125 99.4891 31.1027 101.397 32.5092 102.803C33.9157 104.21 35.8234 105 37.8125 105C39.8016 105 41.7093 104.21 43.1158 102.803C44.5223 101.397 45.3125 99.4891 45.3125 97.5Z" fill="#ECF0F1"/>
</svg>
