<svg width="140" height="140" viewBox="0 0 140 140" fill="none" xmlns="http://www.w3.org/2000/svg">
<path d="M30.625 0C31.7853 0 32.8981 0.460936 33.7186 1.28141C34.5391 2.10188 35 3.21468 35 4.375V8.75H105V4.375C105 3.21468 105.461 2.10188 106.281 1.28141C107.102 0.460936 108.215 0 109.375 0C110.535 0 111.648 0.460936 112.469 1.28141C113.289 2.10188 113.75 3.21468 113.75 4.375V8.75H122.5C127.141 8.75 131.592 10.5937 134.874 13.8756C138.156 17.1575 140 21.6087 140 26.25V122.5C140 127.141 138.156 131.592 134.874 134.874C131.592 138.156 127.141 140 122.5 140H17.5C12.8587 140 8.40752 138.156 5.12563 134.874C1.84374 131.592 0 127.141 0 122.5V26.25C0 21.6087 1.84374 17.1575 5.12563 13.8756C8.40752 10.5937 12.8587 8.75 17.5 8.75H26.25V4.375C26.25 3.21468 26.7109 2.10188 27.5314 1.28141C28.3519 0.460936 29.4647 0 30.625 0V0ZM117.723 26.25H22.2688C19.6438 26.25 17.5 28.21 17.5 30.625V39.375C17.5 41.79 19.635 43.75 22.2688 43.75H117.731C120.356 43.75 122.5 41.79 122.5 39.375V30.625C122.5 28.21 120.365 26.25 117.723 26.25ZM98.1225 68.7312C98.6289 68.7558 99.1351 68.6772 99.6103 68.5002C100.085 68.3233 100.52 68.0517 100.887 67.702C101.254 67.3522 101.546 66.9315 101.746 66.4655C101.946 65.9994 102.048 65.4977 102.048 64.9906C102.048 64.4836 101.946 63.9818 101.746 63.5158C101.546 63.0497 101.254 62.629 100.887 62.2793C100.52 61.9295 100.085 61.6579 99.6103 61.481C99.1351 61.3041 98.6289 61.2255 98.1225 61.25C97.6278 61.2465 97.1374 61.3415 96.6798 61.5294C96.2223 61.7174 95.8067 61.9945 95.4573 62.3447C95.1079 62.6949 94.8317 63.1112 94.6448 63.5692C94.4579 64.0272 94.3641 64.5178 94.3688 65.0125C94.3688 67.095 96.0488 68.7312 98.1312 68.7312H98.1225ZM101.071 73.6575H95.1912V109.576H101.071V73.6575ZM40.985 109.576V89.4512H60.7688V84.1137H40.985V68.2588H62.545V62.9212H35V109.576H40.985ZM69.825 109.576H75.74V87.325C75.74 82.4775 77.7262 78.5137 84.0788 78.5137C85.1725 78.5137 86.3363 78.5488 86.9575 78.645V73.2812C86.2217 73.1707 85.479 73.1122 84.735 73.1062C79.6425 73.1062 76.9388 75.9062 75.88 78.0675H75.705V73.6575H69.825V109.576Z" fill="#2C3E50"/>
</svg>
