<svg width="48" height="43" viewBox="0 0 48 43" fill="none" xmlns="http://www.w3.org/2000/svg">
<path d="M46.8387 8.81216C46.0939 7.08772 45.0201 5.52506 43.6772 4.21163C42.3334 2.89429 40.7489 1.84742 39.01 1.12795C37.2069 0.378933 35.273 -0.00445488 33.3205 3.90538e-05C30.5813 3.90538e-05 27.9088 0.750125 25.5863 2.16695C25.0306 2.50588 24.5028 2.87815 24.0027 3.28375C23.5027 2.87815 22.9749 2.50588 22.4192 2.16695C20.0967 0.750125 17.4242 3.90538e-05 14.685 3.90538e-05C12.7126 3.90538e-05 10.8012 0.37786 8.99547 1.12795C7.25083 1.85025 5.67843 2.88926 4.32827 4.21163C2.98366 5.52357 1.90954 7.08661 1.1668 8.81216C0.39449 10.6068 0 12.5126 0 14.4739C0 16.3241 0.377821 18.2521 1.12791 20.2135C1.75576 21.8525 2.65586 23.5527 3.80599 25.2696C5.62842 27.9866 8.13426 30.8202 11.2457 33.6928C16.4019 38.4544 21.508 41.7437 21.7247 41.8771L23.0415 42.7216C23.6249 43.0939 24.375 43.0939 24.9584 42.7216L26.2752 41.8771C26.4919 41.7382 31.5925 38.4544 36.7542 33.6928C39.8657 30.8202 42.3715 27.9866 44.194 25.2696C45.3441 23.5527 46.2497 21.8525 46.872 20.2135C47.6221 18.2521 47.9999 16.3241 47.9999 14.4739C48.0055 12.5126 47.611 10.6068 46.8387 8.81216V8.81216Z" fill="#ECF0F1"/>
</svg>
