<svg width="75" height="54" viewBox="0 0 75 54" fill="none" xmlns="http://www.w3.org/2000/svg">
<path d="M62.5 46.875C65.9375 46.875 68.7187 44.0625 68.7187 40.625L68.75 6.25C68.75 2.8125 65.9375 0 62.5 0H12.5C9.0625 0 6.25 2.8125 6.25 6.25V40.625C6.25 44.0625 9.0625 46.875 12.5 46.875H0C0 50.3125 2.8125 53.125 6.25 53.125H68.75C72.1875 53.125 75 50.3125 75 46.875H62.5ZM12.5 6.25H62.5V40.625H12.5V6.25ZM37.5 50C35.7812 50 34.375 48.5938 34.375 46.875C34.375 45.1562 35.7812 43.75 37.5 43.75C39.2188 43.75 40.625 45.1562 40.625 46.875C40.625 48.5938 39.2188 50 37.5 50Z" fill="#ECF0F1"/>
</svg>
