<svg width="75" height="48" viewBox="0 0 75 48" fill="none" xmlns="http://www.w3.org/2000/svg">
<path d="M1.99805 24.4076C6.97919 7.72077 12.3339 0 14.5754 0C15.8207 0 16.1943 0.871699 16.6924 2.73963C17.8132 7.34718 16.8169 8.84153 16.0698 9.46417C15.1981 10.3359 13.8283 9.5887 13.8283 4.73208C12.7075 7.59624 7.22825 17.683 4.36409 28.3925L1.99805 24.4076" fill="#ECF0F1"/>
<path d="M72.73 24.4076C67.7489 7.72077 62.3941 0 60.1526 0C58.9073 0 58.5337 0.871699 58.0356 2.73963C56.9149 7.34718 57.9111 8.84153 58.6583 9.46417C59.53 10.3359 60.8998 9.5887 60.8998 4.73208C62.0205 7.59624 67.4998 17.683 70.364 28.3925L72.73 24.4076" fill="#ECF0F1"/>
<path d="M42.4704 25.2793C39.4817 26.7736 35.1232 26.7736 32.259 25.2793C29.1458 23.6604 25.2854 22.5397 20.6779 22.1661C16.1949 21.7925 6.73069 21.7925 1.99861 23.5359C1.50049 23.785 0.877849 24.034 0.379735 24.2831C0.130678 24.4076 0.00614957 24.4076 0.00614957 25.0302V25.7774C0.00614957 27.1472 -0.118379 26.6491 0.753321 27.1472C2.62125 28.268 3.74201 31.1321 4.24012 35.1171C4.98729 40.8454 7.85145 44.4567 12.3345 46.2001C16.4439 47.819 21.176 47.6944 25.2854 46.0756C27.527 45.2039 29.5194 43.7095 31.1383 41.3435C33.8779 37.234 33.1307 34.6189 34.5006 31.0076C35.7458 27.8944 39.2326 27.8944 40.4779 31.0076C41.8477 34.6189 41.1006 37.1095 43.8402 41.3435C45.4591 43.7095 47.4515 45.2039 49.693 46.0756C53.8025 47.819 58.41 47.819 62.644 46.2001C67.127 44.4567 69.8667 40.8454 70.7384 35.1171C71.2365 31.1321 72.3572 28.268 74.2252 27.1472C75.2214 26.5246 74.9723 27.1472 74.9723 25.7774V25.0302C74.9723 24.5321 74.9723 24.4076 74.5987 24.1586C74.1006 23.9095 73.6025 23.6604 72.9799 23.4114C68.2478 21.668 58.7836 21.668 54.3006 22.0416C49.444 22.5397 45.5836 23.6604 42.4704 25.2793" fill="#ECF0F1"/>
<path d="M30.142 27.5208C29.1458 26.7736 27.1533 26.151 24.9118 25.7774C23.6665 25.5284 22.1722 25.4038 20.6778 25.2793C17.3156 25.0302 13.7042 25.0302 11.3382 25.5284C9.84386 25.7774 8.72311 26.151 8.34952 26.6491C6.60612 28.6416 6.97971 34.2454 8.72311 38.2303C9.22122 39.2265 9.84386 40.2227 10.4665 40.9699C11.5873 42.2152 13.0816 42.9624 14.825 43.4605C15.9458 43.8341 17.0665 43.9586 18.3118 44.0831C20.3043 44.2076 22.2967 43.9586 24.1646 43.4605C24.5382 43.3359 24.7873 43.2114 25.0363 43.0869C30.3911 40.7208 31.7609 31.7548 30.8892 28.517C30.7647 28.1435 30.5156 27.7699 30.142 27.5208" fill="#3498DB"/>
<path d="M66.8776 26.7736C66.753 26.6491 66.753 26.5246 66.6285 26.4001C65.8813 25.4038 62.27 25.0302 58.2851 25.0302C56.7907 25.0302 55.2964 25.1548 53.8021 25.2793C52.1832 25.4038 50.5643 25.6529 49.1945 25.9019C46.4549 26.5246 44.4624 27.3963 44.2134 28.517C43.7152 30.5095 43.9643 34.4944 45.4586 37.9812C46.0813 39.351 46.8285 40.7208 47.9492 41.7171C48.8209 42.5888 49.8171 43.2114 51.0624 43.4605C51.3115 43.4605 51.436 43.585 51.6851 43.585C55.4209 44.4567 59.7794 44.2076 62.8926 42.3397C63.5153 41.9661 64.1379 41.468 64.7606 40.9699C67.6247 37.7322 68.7455 29.7623 66.8776 26.7736" fill="#3498DB"/>
</svg>
