<svg width="81" height="65" viewBox="0 0 81 65" fill="none" xmlns="http://www.w3.org/2000/svg">
<path d="M32.1682 40.4917L55.4395 17.2245C54.4705 16.2558 53.7554 15.0631 53.3574 13.752C52.9595 12.4409 52.891 11.0519 53.158 9.70803C53.4251 8.36415 54.0194 7.10686 54.8885 6.04754C55.7575 4.98822 56.8743 4.15955 58.1401 3.63494C59.4058 3.11032 60.7814 2.90595 62.145 3.03993C63.5086 3.17391 64.8181 3.6421 65.9575 4.40303C67.097 5.16396 68.0312 6.19415 68.6774 7.40235C69.3236 8.61055 69.6619 9.95947 69.6623 11.3296C71.0328 11.3286 72.3824 11.6658 73.5914 12.3111C74.8005 12.9564 75.8317 13.89 76.5937 15.0292C77.3557 16.1683 77.8249 17.4779 77.9598 18.8417C78.0947 20.2056 77.891 21.5817 77.3669 22.848C76.8428 24.1143 76.0144 25.2318 74.9551 26.1014C73.8958 26.9711 72.6384 27.566 71.2942 27.8334C69.9501 28.1009 68.5607 28.0327 67.2492 27.6348C65.9377 27.2369 64.7447 26.5216 63.7757 25.5524L48.8322 40.4917" stroke="#ECF0F1" stroke-width="6" stroke-linecap="round" stroke-linejoin="round"/>
<path d="M40.5 32.1597L25.5607 17.2245C26.5297 16.2558 27.2448 15.0631 27.6428 13.752C28.0408 12.4409 28.1092 11.0519 27.8422 9.70803C27.5751 8.36415 26.9808 7.10686 26.1118 6.04754C25.2428 4.98822 24.1259 4.15955 22.8602 3.63494C21.5944 3.11032 20.2188 2.90595 18.8552 3.03993C17.4916 3.17391 16.1821 3.6421 15.0427 4.40303C13.9033 5.16396 12.9691 6.19415 12.3228 7.40235C11.6766 8.61055 11.3383 9.95947 11.338 11.3296C9.96744 11.3286 8.61785 11.6658 7.40878 12.3111C6.1997 12.9564 5.16848 13.89 4.4065 15.0292C3.64452 16.1683 3.17531 17.4779 3.04044 18.8417C2.90558 20.2056 3.10923 21.5817 3.63334 22.848C4.15746 24.1143 4.98586 25.2318 6.04512 26.1014C7.10439 26.9711 8.36182 27.566 9.70598 27.8334C11.0501 28.1009 12.4395 28.0327 13.751 27.6348C15.0625 27.2369 16.2556 26.5216 17.2245 25.5524L32.168 40.4917" stroke="#ECF0F1" stroke-width="6" stroke-linecap="round" stroke-linejoin="round"/>
<path d="M3.0061 61.3217H77.9942C77.2652 54.3603 77.8026 47.3864 69.6622 40.4917H11.3381C5.78483 44.6577 3.0061 51.6024 3.0061 61.3217Z" stroke="#ECF0F1" stroke-width="6" stroke-linecap="round" stroke-linejoin="round"/>
</svg>
