<svg width="75" height="65" viewBox="0 0 75 65" fill="none" xmlns="http://www.w3.org/2000/svg">
<path d="M64.7727 23.8636V17.0455C64.7727 13.2955 61.7045 10.2273 57.9545 10.2273H47.7273C47.7273 4.56818 43.1591 0 37.5 0C31.8409 0 27.2727 4.56818 27.2727 10.2273H17.0455C13.2955 10.2273 10.2273 13.2955 10.2273 17.0455V23.8636C4.56818 23.8636 0 28.4318 0 34.0909C0 39.75 4.56818 44.3182 10.2273 44.3182V57.9545C10.2273 61.7045 13.2955 64.7727 17.0455 64.7727H57.9545C61.7045 64.7727 64.7727 61.7045 64.7727 57.9545V44.3182C70.4318 44.3182 75 39.75 75 34.0909C75 28.4318 70.4318 23.8636 64.7727 23.8636ZM57.9545 57.9545H17.0455V17.0455H57.9545V57.9545ZM27.2727 37.5C24.4432 37.5 22.1591 35.2159 22.1591 32.3864C22.1591 29.5568 24.4432 27.2727 27.2727 27.2727C30.1023 27.2727 32.3864 29.5568 32.3864 32.3864C32.3864 35.2159 30.1023 37.5 27.2727 37.5ZM52.8409 32.3864C52.8409 35.2159 50.5568 37.5 47.7273 37.5C44.8977 37.5 42.6136 35.2159 42.6136 32.3864C42.6136 29.5568 44.8977 27.2727 47.7273 27.2727C50.5568 27.2727 52.8409 29.5568 52.8409 32.3864ZM23.8636 44.3182H51.1364V51.1364H23.8636V44.3182Z" fill="#ECF0F1"/>
</svg>
