<svg width="75" height="75" viewBox="0 0 75 75" fill="none" xmlns="http://www.w3.org/2000/svg">
<path d="M72.435 7.70666C65.835 5.54291 48.75 -0.0558292 48.75 0.000420761C48.75 2.9841 47.5647 5.84558 45.4549 7.95536C43.3452 10.0651 40.4837 11.2504 37.5 11.2504C34.5163 11.2504 31.6548 10.0651 29.5451 7.95536C27.4353 5.84558 26.25 2.9841 26.25 0.000420761C26.25 -0.0558292 9.16504 5.54291 2.5613 7.70666C1.8131 7.95191 1.16201 8.42823 0.701756 9.06707C0.241498 9.7059 -0.00419107 10.4743 5.41004e-05 11.2617V25.1966C0.000211451 25.7663 0.13013 26.3283 0.379949 26.8403C0.629768 27.3522 0.992923 27.8004 1.44185 28.151C1.89077 28.5017 2.41367 28.7454 2.97086 28.8638C3.52804 28.9821 4.10486 28.972 4.65755 28.8341L15 26.2504V71.2503C15 72.2449 15.3951 73.1987 16.0984 73.902C16.8016 74.6052 17.7555 75.0003 18.75 75.0003H56.25C57.2445 75.0003 58.1984 74.6052 58.9016 73.902C59.6049 73.1987 60 72.2449 60 71.2503V26.2504L70.3425 28.8341C70.8951 28.972 71.472 28.9821 72.0292 28.8638C72.5863 28.7454 73.1092 28.5017 73.5582 28.151C74.0071 27.8004 74.3702 27.3522 74.6201 26.8403C74.8699 26.3283 74.9998 25.7663 75 25.1966V11.2617C75.0039 10.4738 74.7577 9.70509 74.2967 9.0662C73.8358 8.42731 73.1839 7.95126 72.435 7.70666V7.70666Z" fill="#ECF0F1"/>
</svg>
