<svg width="75" height="75" viewBox="0 0 75 75" fill="none" xmlns="http://www.w3.org/2000/svg">
<path d="M3.125 30.2083C3.125 30.2083 4.58333 26.25 6.66667 20.4167C8.22917 16.1458 13.125 13.75 15.7292 12.7083C16.5625 12.3958 17.5 12.8125 17.8125 13.75C18.75 16.7708 20 23.2292 28.0208 26.1458C38.6458 30 41.3542 21.9792 41.7708 21.0417C42.1875 20.1042 43.9583 18.6458 46.4583 22.7083C48.9583 26.875 49.4792 30.3125 51.9792 35.625C54.4792 40.9375 53.5417 46.3542 66.0417 50.9375C68.3333 51.7708 75.5208 54.0625 72.3958 62.5C72.3958 62.5 59.375 60.9375 50.5208 57.7083C41.6667 54.4792 33.5417 49.1667 30.4167 43.8542C27.2917 38.5417 3.125 30.2083 3.125 30.2083Z" fill="#ECF0F1"/>
<path d="M46.5621 31.4583C46.3538 31.4583 46.1454 31.3542 46.0413 31.1458C45.9371 30.8333 46.0413 30.5208 46.3538 30.4167L49.4788 29.0625C49.7913 28.9583 50.1038 29.0625 50.2079 29.375C50.3121 29.6875 50.2079 30 49.8954 30.1042L46.7704 31.4583H46.5621Z" fill="#3498DB"/>
<path d="M45.3128 28.8542C45.1045 28.8542 44.8962 28.75 44.792 28.5417C44.6878 28.2292 44.792 27.9167 45.1045 27.8125L48.2295 26.4583C48.542 26.3542 48.8545 26.4583 48.9587 26.7708C49.0628 27.0833 48.9587 27.3958 48.6462 27.5L45.5212 28.8542H45.3128Z" fill="#3498DB"/>
<path d="M47.7086 33.8542C47.5002 33.8542 47.2919 33.75 47.1877 33.5417C47.0836 33.2292 47.1877 32.9167 47.5002 32.8125L50.3127 31.5625C50.6252 31.4583 50.9377 31.5625 51.0419 31.875C51.1461 32.1875 51.0419 32.5 50.7294 32.6042L47.9169 33.8542H47.7086Z" fill="#3498DB"/>
<path d="M48.7501 36.25C48.5417 36.25 48.3334 36.1458 48.2292 35.9375C48.1251 35.625 48.2292 35.3125 48.5417 35.2083L51.2501 34.0625C51.5626 33.9583 51.8751 34.0625 51.9793 34.375C52.0834 34.6875 51.9792 35 51.6667 35.1042L48.9584 36.25H48.7501Z" fill="#3498DB"/>
<path d="M40.8336 44.2708C42.7086 45 44.6877 45.2083 46.4586 45.1041C49.8961 45 52.6044 43.5416 53.9586 41.3541C53.7502 40.8333 53.5419 40.3125 53.4377 39.7916C52.6044 42.1875 50.0002 43.6458 46.4586 43.8541C42.6044 44.0625 37.8127 42.3958 36.1461 38.8541C32.3961 30.8333 26.7711 23.5416 12.8127 30.1041C12.5002 30.2083 12.3961 30.625 12.5002 30.8333C12.6044 31.0416 13.0211 31.25 13.2294 31.1458C23.6461 26.25 30.0002 28.6458 35.0002 39.375C36.2502 41.875 38.4377 43.4375 40.8336 44.2708Z" fill="#3498DB"/>
<path d="M52.8129 57.2917C53.1254 57.3958 53.4379 57.2917 53.5421 56.9792C54.8962 53.2292 57.0837 48.75 58.9587 47.5C58.5421 47.2917 58.2296 47.0833 57.8129 46.875C55.4171 48.9583 53.2296 54.1667 52.3962 56.5625C52.2921 56.7708 52.5004 57.1875 52.8129 57.2917Z" fill="#3498DB"/>
<path d="M74.0627 61.3542C73.9585 61.3542 62.0835 59.5833 56.771 57.6042L47.7085 54.2708C38.021 50.7292 35.6252 47.7083 32.8127 44.1667C29.0627 39.4792 24.7918 34.0625 4.27099 26.5625L3.12516 29.6875V29.7917L0.520992 36.9792C0.208492 37.9167 0.625159 38.8542 1.35433 39.1667L20.3127 46.0417C21.146 46.3542 22.0835 45.8333 22.396 44.8958L24.1668 40.1042V40C27.0835 42.2917 28.646 44.2708 30.2085 46.1458C33.2293 49.8958 36.0418 53.4375 46.5627 57.2917L55.6252 60.625C61.2502 62.7083 73.021 64.4792 73.5418 64.4792C74.5835 63.9583 75.0002 61.9792 74.0627 61.3542V61.3542Z" fill="#ECF0F1"/>
</svg>
