<svg width="48" height="48" viewBox="0 0 48 48" fill="none" xmlns="http://www.w3.org/2000/svg">
<path d="M24 0C37.2548 0 48 10.7452 48 24C48 37.2548 37.2548 48 24 48C10.7452 48 1.07288e-06 37.2548 1.07288e-06 24C1.07288e-06 10.7452 10.7452 0 24 0ZM22.3535 10.4004C15.9322 10.4004 10.7285 15.607 10.7285 22.0283C10.7285 28.4496 15.9322 33.6533 22.3535 33.6533C24.2968 33.6533 26.1282 33.1779 27.7383 32.335C27.7366 32.3424 27.734 32.351 27.7324 32.3584L32.9766 37.5996L37.2715 33.3018L32.2148 28.2422C32.2065 28.2384 32.1968 28.237 32.1885 28.2334C33.324 26.4377 33.9814 24.3099 33.9814 22.0283C33.9814 15.607 28.7748 10.4004 22.3535 10.4004V10.4004ZM22.3535 15.5654C25.922 15.5654 28.8164 18.4598 28.8164 22.0283C28.8164 25.5968 25.922 28.4883 22.3535 28.4883C18.785 28.4883 15.8936 25.5968 15.8936 22.0283C15.8936 18.4598 18.785 15.5654 22.3535 15.5654Z" fill="#ECF0F1"/>
</svg>
